Coordinates
version=1
nRows=19
nColumns=24
inDegrees=yes

Units are S.I. units (second, meters, Newtons, ...)
Angles are in degrees.

endheader
time	pelvis_tilt	pelvis_list	pelvis_rotation	pelvis_tx	pelvis_ty	pelvis_tz	hip_flexion_r	hip_adduction_r	hip_rotation_r	knee_angle_r	ankle_angle_r	subtalar_angle_r	mtp_angle_r	hip_flexion_l	hip_adduction_l	hip_rotation_l	knee_angle_l	ankle_angle_l	subtalar_angle_l	mtp_angle_l	lumbar_extension	lumbar_bending	lumbar_rotation
      4.66000000	    -19.45498275	     10.27342272	     -8.02373705	     -0.75596800	     -0.04192805	     -0.27097979	     18.27157194	     -7.52583438	      1.99177318	    -56.77869765	    -16.91521102	    -12.66531066	   -149.25503721	     42.83833487	     12.82890200	      3.33923402	    -27.86171004	     -3.53681153	    -14.04845667	     14.88100737	     14.80183491	     -7.96705453	     10.24870742
      4.66500000	    -19.47921420	     10.30653048	     -8.13564133	     -0.74856168	     -0.04029579	     -0.27085099	     19.56332687	     -7.24789562	      2.32642165	    -58.27740087	    -15.10103418	    -14.21214570	   -146.89848087	     41.95355787	     12.79897381	      3.16567303	    -27.21613597	     -2.87914011	    -13.44648360	     15.47445070	     14.83057306	     -7.90649410	     10.17797916
      4.67000000	    -19.49304685	     10.33388983	     -8.25537239	     -0.74115860	     -0.03858800	     -0.27069298	     20.82469770	     -6.93964782	      2.69104275	    -59.64897049	    -13.33352346	    -15.65893305	   -144.49929944	     41.03492339	     12.76679907	      3.00599121	    -26.53440982	     -2.27777646	    -12.86337681	     15.86320626	     14.86098907	     -7.84332680	     10.12116600
      4.67500000	    -19.50465383	     10.35389100	     -8.38224084	     -0.73377661	     -0.03683025	     -0.27050187	     22.06304504	     -6.60037652	      3.08496094	    -60.89066121	    -11.65738089	    -17.01759780	   -142.24320742	     40.08789828	     12.72917127	      2.87251986	    -25.80854940	     -1.71440725	    -12.28774011	     16.05790717	     14.89081141	     -7.77189902	     10.07619742
      4.68000000	    -19.50606040	     10.37230060	     -8.50944432	     -0.72639575	     -0.03502534	     -0.27028459	     23.26568350	     -6.25031909	      3.48759897	    -62.00021012	    -10.11167245	    -18.26972618	   -140.12832224	     39.11212929	     12.70030828	      2.77109674	    -25.05271606	     -1.21534069	    -11.75375676	     16.08184084	     14.91595096	     -7.70699835	     10.04377640
      4.68500000	    -19.50152866	     10.38061095	     -8.63298077	     -0.71900317	     -0.03317788	     -0.27005887	     24.43006308	     -5.88560109	      3.88980858	    -62.97113940	     -8.70629687	    -19.43798876	   -138.31085407	     38.09727770	     12.67566317	      2.71157217	    -24.23910124	     -0.79360309	    -11.28590039	     15.96282865	     14.94062271	     -7.63466036	     10.02118373
      4.69000000	    -19.47798724	     10.37695862	     -8.76625813	     -0.71168080	     -0.03131131	     -0.26982562	     25.56209902	     -5.50492072	      4.29676264	    -63.82994896	     -7.46168719	    -20.52189247	   -136.82098162	     37.04760615	     12.65506388	      2.73253231	    -23.39494371	     -0.45029558	    -10.92681683	     15.73085366	     14.93485979	     -7.55606947	     10.00621421
      4.69500000	    -19.45828557	     10.33741478	     -8.85864186	     -0.70428029	     -0.02940960	     -0.26962199	     26.63705845	     -5.11305391	      4.62904624	    -64.53977718	     -6.33876940	    -21.52337926	   -135.54054285	     35.95782247	     12.63832520	      2.84850420	    -22.49247437	     -0.20975311	    -10.67945432	     15.36617496	     14.93813249	     -7.45327518	      9.95851671
      4.70000000	    -19.50164215	     10.20442260	     -8.87012745	     -0.69687800	     -0.02754530	     -0.26950473	     27.69563389	     -4.66031145	      4.84959756	    -65.05048647	     -5.35062090	    -22.55058481	   -135.44420413	     34.90974651	     12.56772948	      3.07387100	    -21.57260421	     -0.06614081	    -10.49763228	     15.33213620	     14.98573247	     -7.26663448	      9.82428789
      4.70500000	    -19.43581439	     10.12909413	     -8.98178396	     -0.68951856	     -0.02558529	     -0.26921779	     28.65977169	     -4.24501897	      5.16214984	    -65.51160189	     -4.34204276	    -23.36110844	   -135.12434647	     33.72386974	     12.52260317	      3.25955504	    -20.56486353	     -0.05230919	    -10.47191420	     15.05726338	     14.93470661	     -7.14769970	      9.82063003
      4.71000000	    -19.50240891	      9.94138682	     -8.96070685	     -0.68218032	     -0.02379959	     -0.26905189	     29.68555048	     -3.76813398	      5.27821271	    -65.84349346	     -3.37936117	    -24.09337776	   -135.02987637	     32.68279395	     12.40158110	      3.54914418	    -19.61820328	      0.03303533	    -10.28931131	     14.97043065	     14.98891990	     -6.92828316	      9.65669084
      4.71500000	    -19.40418851	      9.74071585	     -8.93065942	     -0.67474651	     -0.02181153	     -0.26897319	     30.47934027	     -3.36012520	      5.33518364	    -66.07513040	     -2.23920193	    -24.52593295	   -134.68765989	     31.38810688	     12.35793358	      4.14913641	    -18.55837991	     -0.13317145	    -10.57676137	     14.13583117	     14.86656353	     -6.73058868	      9.48131845
      4.72000000	    -19.41839824	      9.45633373	     -8.84591693	     -0.66741003	     -0.02001768	     -0.26885343	     31.34394910	     -2.86886283	      5.32152730	    -66.20789016	     -1.01037221	    -24.78133506	   -134.69607620	     30.26716975	     12.18392976	      4.58539386	    -17.60267860	     -0.13022520	    -10.49530208	     13.85062530	     14.83633812	     -6.45429993	      9.19942434
      4.72500000	    -19.36043753	      9.17072090	     -8.76898608	     -0.66003131	     -0.01811594	     -0.26874718	     32.09205100	     -2.41800070	      5.26576464	    -66.19907157	      0.20178583	    -25.00506402	   -134.93676154	     29.00622441	     12.03967676	      5.27859185	    -16.54214893	     -0.35999023	    -10.77528629	     13.09473165	     14.73137843	     -6.19123183	      8.97602010
      4.73000000	    -19.34415181	      8.83477205	     -8.63279704	     -0.65271859	     -0.01634731	     -0.26865360	     32.83926879	     -1.94962492	      5.14123835	    -66.10425689	      1.57480395	    -25.00703795	   -135.33785170	     27.83004452	     11.83481998	      5.93926957	    -15.56547148	     -0.47617120	    -10.85810940	     12.50830620	     14.65094625	     -5.89752901	      8.63668986
      4.73500000	    -19.39719548	      8.42222153	     -8.44541593	     -0.64545126	     -0.01466447	     -0.26859047	     33.60144732	     -1.43570198	      4.93142713	    -65.89758512	      3.04433742	    -24.77986361	   -135.61118932	     26.78498818	     11.53245347	      6.42873275	    -14.68884805	     -0.57506865	    -10.77175379	     12.22708607	     14.62597860	     -5.53014477	      8.25415362
      4.74000000	    -19.34006510	      8.01641383	     -8.26747385	     -0.63815508	     -0.01284919	     -0.26857860	     34.20143803	     -0.96708686	      4.73371350	    -65.53267245	      4.47524408	    -24.54934722	   -136.41334681	     25.54461600	     11.27478834	      7.32998849	    -13.68896080	     -0.94288071	    -11.17396529	     11.37130608	     14.48073780	     -5.18735796	      7.91404013
      4.74500000	    -19.35868857	      7.59451006	     -8.02533500	     -0.63094332	     -0.01124120	     -0.26856510	     34.85716777	     -0.51098160	      4.48875345	    -65.10259570	      5.97402267	    -24.12330062	   -137.20771154	     24.47453985	     10.97247109	      8.03028972	    -12.84216840	     -1.06830074	    -11.17725563	     10.68294845	     14.40809496	     -4.84398171	      7.43310645
      4.75000000	    -19.45453884	      7.16431956	     -7.72375075	     -0.62383267	     -0.00977232	     -0.26857425	     35.57254616	     -0.08436805	      4.17676176	    -64.60500948	      7.48047348	    -23.49117644	   -137.52723874	     23.58486539	     10.63856760	      8.47287062	    -12.12618436	     -1.19005280	    -10.90352819	     10.46433483	     14.40388755	     -4.50537896	      6.97444164
